PathFileType	4	(X/Y/Z)	C:/Users/beibeiliu/ov580/test_trc/User3\sequence.21_training_dense_left.trc
DataRate	CameraRate	NumFrames	NumMarkers	Units	OrigDataRate	OrigDataStartFrame	OrigNumFrames
120	120	17	19	mm	120	31	92
Frame#	Time	ThumbCMC			ThumbMCP			ThumbIP			ThumbTip			IndexMCP			IndexPIP			IndexTip			MiddleMCP			MiddlePIP			MiddleTip			RingMCP			RingPIP			RingTip			PinkyMCP			PinkyPIP			PinkyTip			BackHand1			BackHand2			BackHand3	
		X0	Y0	Z0	X1	Y1	Z1	X2	Y2	Z2	X3	Y3	Z3	X4	Y4	Z4	X5	Y5	Z5	X6	Y6	Z6	X7	Y7	Z7	X8	Y8	Z8	X9	Y9	Z9	X10	Y10	Z10	X11	Y11	Z11	X12	Y12	Z12	X13	Y13	Z13	X14	Y14	Z14	X15	Y15	Z15	X16	Y16	Z16	X17	Y17	Z17	X18	Y18	Z18	
30	0.25	-119.237	-16.1688	20.2437	-113.622	-35.0961	-10.3298	-135.853	-47.3341	-25.0539	-164.713	-49.4847	-21.1995	-125.923	-5.63318	-54.9896	-124.917	-9.66623	-75.6552	-120.925	-13.2847	-105.472	-157.725	-4.7769	-54.0317	-157.871	-7.52757	-84.0462	-157.779	-13.4216	-112.972	-176.477	-10.3604	-47.7193	-183.274	-13.1474	-71.0642	-183.875	-15.6773	-96.3988	-194.284	-20.6525	-27.4046	-204.326	-23.4903	-43.1623	-216.591	-21.5565	-66.4619	-175.175	4.44709	1.13983	-172.925	9.11733	32.3034	-142.073	11.9434	11.8196	
31	0.258333	-117.772	-16.3361	22.6016	-112.694	-37.1752	-9.83024	-135.602	-47.255	-25.7514	-165.236	-52.4414	-25.4004	-129.892	-6.74475	-54.932	-122.198	-10.2953	-76.1736	-118.779	-13.4653	-102.786	-155.989	-4.86338	-58.3639	-155.902	-8.97856	-84.7862	-154.799	-12.4938	-115.722	-178.805	-12.6151	-44.3545	-181.153	-13.9518	-66.943	-186.271	-16.7888	-95.2764	-195.713	-21.8641	-23.2416	-207.496	-23.5521	-43.9837	-215.517	-23.3701	-60.9299	-173.859	4.28787	2.60615	-170.702	8.56374	33.3083	-137.852	10.345	10.884	
32	0.266667	-117.398	-17.3857	21.3878	-113.222	-36.6377	-8.19416	-135.914	-50.2082	-28.5343	-164.44	-50.6171	-22.6146	-127.216	-6.93446	-49.6936	-123.819	-11.2694	-77.2864	-121.865	-14.1073	-102.603	-157.482	-6.16293	-54.5778	-157.347	-8.26391	-82.3412	-155.241	-13.6382	-113.666	-175.602	-11.4632	-44.6952	-182.337	-13.687	-66.3297	-187.222	-17.7722	-92.8534	-196.957	-22.2851	-24.5671	-203.187	-23.6301	-44.9924	-215.771	-23.8732	-64.9636	-174.308	3.65126	1.79278	-170.208	8.23692	33.2059	-143.217	8.48934	13.0916	
33	0.275	-113.839	-17.0397	21.8881	-113.287	-37.5823	-10.1366	-140.265	-49.9552	-30.0895	-163.88	-51.3952	-22.4154	-131.141	-8.17868	-51.4629	-126.231	-10.825	-77.447	-121.875	-14.2792	-102.979	-155.397	-6.21145	-57.5722	-156.924	-8.88463	-82.2409	-155.812	-13.275	-111.504	-175.319	-12.3574	-47.2112	-181.636	-14.7992	-67.2219	-187.837	-18.4129	-95.4022	-197.878	-21.5806	-28.0213	-203.532	-24.8258	-45.7663	-217.757	-23.3432	-61.2709	-170.401	3.9303	0.968775	-170.596	8.93961	28.5092	-142.048	10.5987	10.8299	
34	0.283333	-115.639	-17.3026	22.2956	-111.832	-39.5984	-8.92509	-136.487	-50.4625	-26.8834	-164.315	-50.3859	-20.5571	-128.526	-7.88906	-50.382	-125.19	-11.8036	-80.7829	-123.184	-13.3919	-100.435	-154.931	-5.69961	-58.6802	-157.61	-9.78742	-85.0301	-156.747	-14.8892	-116.47	-177.328	-12.3643	-45.3184	-179.159	-13.8807	-70.4418	-187.358	-18.2147	-96.2153	-195.053	-23.0476	-23.1578	-204.273	-24.5884	-46.3316	-214.422	-23.9026	-64.5576	-169.987	3.50772	1.27789	-170.694	8.99833	32.6868	-142.596	9.72537	10.929	
35	0.291667	-113.957	-18.522	24.1118	-114.254	-37.5534	-9.98326	-137.09	-48.561	-25.4587	-163.928	-50.3294	-18.9638	-127.122	-6.8023	-51.4726	-120.495	-10.7973	-80.1265	-120.808	-13.3869	-100.032	-158.738	-6.32567	-58.3315	-155.606	-10.0598	-84.7631	-154.985	-13.9388	-114.821	-177.902	-13.0081	-45.4556	-180.781	-14.252	-70.9303	-185.529	-18.2609	-93.806	-196.506	-21.6491	-28.3535	-204.513	-24.797	-47.0874	-215.99	-25.9495	-61.4503	-173.075	3.49955	-0.185572	-172.804	9.45056	30.932	-141.593	8.13117	13.3543	
36	0.3	-114.348	-17.786	23.8447	-115.007	-36.4289	-8.63804	-136.771	-48.3851	-25.2993	-166.852	-52.9422	-23.6676	-131.598	-8.28031	-51.902	-126.242	-10.5504	-75.032	-124.414	-13.4012	-100.332	-157.058	-6.06829	-55.3267	-154.733	-9.07574	-81.1604	-159.412	-14.3524	-111.7	-177.524	-13.3307	-43.1221	-180.574	-15.1719	-66.2783	-185.609	-18.5557	-97.4407	-194.527	-22.5775	-28.8958	-202.414	-25.5655	-46.389	-217.536	-26.0229	-64.2739	-175.304	1.92925	3.98776	-172.911	9.24157	30.0671	-142.608	8.18178	13.1661	
37	0.308333	-117.188	-17.7674	21.935	-115.969	-35.8211	-9.81617	-136.198	-48.7631	-25.7342	-165.943	-53.208	-25.0908	-131.389	-7.99534	-55.6987	-125.199	-10.1306	-78.6245	-120.246	-13.067	-102.23	-159.157	-6.87541	-53.7488	-157.974	-9.67625	-82.1212	-160.295	-14.7757	-111.821	-179.492	-13.2443	-43.4133	-180.26	-14.4657	-71.0809	-190.509	-18.5056	-97.6022	-196.026	-22.1519	-22.8165	-205.923	-25.6427	-43.2027	-213.275	-23.9851	-61.5715	-170.81	2.82513	5.15002	-176.308	8.93069	31.8127	-139.46	9.51096	10.7931	
38	0.316667	-119.498	-17.2064	22.3037	-113.727	-38.3589	-9.58412	-137.466	-50.2929	-29.0564	-163.471	-52.738	-22.216	-130.785	-7.69695	-51.1289	-121.838	-10.4415	-78.4934	-123.137	-12.8513	-102.69	-154.659	-5.93983	-54.9384	-157.922	-9.74594	-83.5251	-160.609	-14.5479	-116.008	-176.397	-12.5737	-46.2799	-181.723	-14.1581	-69.6162	-188.625	-18.0976	-94.7526	-195.484	-22.5136	-27.1316	-207.259	-25.3523	-43.3806	-219.85	-24.289	-65.4112	-174.659	0.946799	4.44641	-171.44	8.98023	30.1854	-139.714	10.6571	11.2871	
39	0.325	-121.014	-16.4344	21.9973	-115.849	-35.4988	-6.47144	-140.62	-49.049	-29.0524	-170.371	-50.5245	-21.4761	-131.947	-7.43791	-56.5615	-125.316	-9.21314	-76.3234	-122.162	-12.2628	-104.517	-160.995	-5.74453	-58.6006	-159.972	-9.46515	-85.8534	-161.962	-13.638	-112.378	-176.864	-12.4271	-45.9004	-184.048	-14.8432	-70.7999	-192.61	-17.7842	-97.272	-198.238	-22.0935	-28.7217	-207.988	-24.9842	-45.9417	-219.417	-26.354	-66.7224	-173.196	3.65721	2.72881	-175.41	7.82962	30.3737	-140.247	10.3043	13.0158	
40	0.333333	-116.37	-17.0755	19.5049	-117.302	-35.3219	-10.0138	-140.224	-48.5926	-30.1389	-169.694	-51.7851	-23.6149	-134.21	-6.55297	-57.0945	-125.898	-9.96231	-79.1679	-125.809	-12.2654	-103.085	-161.106	-5.8059	-58.0658	-160.476	-8.47156	-84.1274	-157.441	-13.4537	-115.691	-181.228	-13.1271	-46.111	-184.739	-13.8724	-69.6177	-190.245	-17.8227	-98.4553	-196.055	-21.7234	-26.3066	-209.247	-25.3983	-44.1711	-217.715	-23.71	-65.1755	-178.679	1.60578	-0.0561651	-175.674	8.21927	30.3651	-144.703	10.9855	11.8437	
41	0.341667	-117.11	-15.5493	19.8271	-116.703	-35.8691	-7.26239	-142.652	-50.0815	-31.347	-169.732	-49.4146	-21.4172	-132.827	-6.67269	-53.8935	-126.987	-9.02824	-76.8096	-126.734	-12.7157	-101.97	-162.201	-5.2487	-59.2079	-160.48	-7.73262	-85.4017	-163.517	-14.1173	-115.875	-183.146	-13.006	-45.348	-183.713	-14.4313	-69.9307	-189.212	-18.08	-96.7049	-201.117	-22.5821	-26.9466	-209.428	-25.6377	-46.0814	-222.366	-25.4655	-67.0101	-177.04	1.7687	1.02989	-173.72	8.00061	29.4905	-142.974	10.7979	12.7167	
42	0.35	-120.134	-16.9626	17.6368	-115.474	-36.9059	-11.1803	-144.371	-47.2446	-28.3578	-167.165	-49.931	-21.7285	-130.346	-5.46099	-53.5644	-125.764	-9.75127	-81.1124	-122.991	-12.7396	-107.118	-160.993	-5.46732	-60.8177	-162.088	-8.10505	-86.5473	-158.947	-14.3126	-119.767	-182.097	-13.5486	-45.8376	-188.683	-15.2539	-71.648	-190.556	-17.9016	-97.094	-200.295	-22.7283	-27.3849	-208.246	-24.8709	-47.0289	-218.447	-24.4035	-66.2383	-175.82	2.72711	2.97097	-174.975	7.86209	30.6768	-143.982	10.3467	12.415	
43	0.358333	-118.451	-16.0935	18.8645	-117.343	-33.8954	-10.084	-136.956	-47.3189	-29.7815	-168.002	-51.0576	-27.388	-135.006	-5.63467	-56.5126	-124.509	-7.05459	-77.9404	-123.79	-9.52558	-102.657	-162.054	-5.11086	-57.2617	-158.388	-6.46068	-88.5826	-160.328	-13.0949	-116.673	-180.44	-12.189	-50.0892	-185.241	-13.2803	-69.7656	-192.762	-16.5757	-97.3191	-197.175	-20.4886	-31.3192	-207.461	-23.5989	-47.0633	-216.77	-22.4712	-64.2167	-174.797	3.51688	-0.865063	-178.342	8.59496	30.3707	-142.234	10.9237	12.4854	
44	0.366667	-122.948	-14.7425	20.9675	-112.845	-31.2498	-11.8383	-132.481	-42.8551	-39.4083	-158.717	-46.874	-37.217	-132.822	-0.185566	-53.8796	-127.265	0.184481	-77.6628	-125.51	-0.892351	-105.633	-158.916	1.46453	-56.5704	-160.692	0.301304	-84.1337	-159.334	-2.31537	-117.396	-182.301	-5.68555	-51.6581	-185.524	-5.69138	-70.6984	-192.531	-8.16452	-98.9147	-197.916	-15.361	-28.8127	-210.169	-17.0262	-51.1096	-217.243	-14.2287	-71.4434	-176.016	6.39541	1.46594	-173.993	10.7144	29.1174	-142.156	13.388	9.51533	
45	0.375	-124.774	-12.8335	16.7224	-113.159	-23.4124	-13.852	-122.002	-33.4956	-38.5127	-139.602	-41.7526	-53.0466	-137.058	11.7508	-54.0866	-130.17	14.429	-80.3642	-128.482	15.8918	-105.572	-163.838	15.4711	-59.4835	-167.581	17.4136	-88.3445	-165.742	18.1224	-116.38	-182.8	9.01872	-49.7541	-188.916	10.3504	-71.3226	-196.492	11.0885	-102.151	-206.38	-1.17655	-34.2887	-217.327	-1.91159	-50.7352	-224.618	2.02054	-69.1878	-183.596	13.4159	3.24602	-177.887	15.2552	32.5581	-147.086	14.8662	13.1974	
46	0.383333	-130.86	-9.08843	9.90003	-113.628	-17.533	-13.5835	-112.207	-24.2474	-41.3444	-123.698	-32.6755	-64.5321	-149.754	16.5316	-56.69	-146.366	20.698	-81.3994	-147.757	22.4076	-108.981	-175.245	22.9045	-60.7584	-178.878	26.8936	-90.2443	-182.894	27.5533	-117.501	-201.622	16.1085	-48.179	-203.171	20.0371	-72.6353	-214.691	21.0206	-97.6519	-219.778	6.80754	-33.9628	-227.57	7.41301	-47.9261	-240.157	8.13912	-68.0377	-189.033	17.8245	0.258844	-187.067	14.6639	31.7607	-154.89	15.2569	9.43741	
